<svg width="1099" height="1150" viewBox="0 0 1099 1150" fill="none" xmlns="http://www.w3.org/2000/svg">
<path opacity="0.5" d="M318.343 75.6942C198.405 176.217 179.819 366.298 98.5892 506.527C70.3124 555.322 33.7749 598.992 14.7119 653.123C-29.0536 777.026 31.1802 917.572 111.801 1015.98C150.245 1062.93 195.149 1105.94 249.478 1125.72C291.258 1140.94 336.056 1141.57 380.033 1141.97L1150.5 1149.9C1236.52 1150.77 1332.1 1147.62 1393.95 1081.21C1436.57 1035.48 1453.89 968.692 1468.58 904.944C1486.64 826.613 1503 741.546 1474.91 666.94C1442.82 581.582 1361.67 533.21 1311.26 459.555C1229.45 340.223 1231.33 159.731 1127.14 64.4664C1078.51 20.0041 1014.33 2.56788 951.792 -6.15022C833.892 -22.6089 722.215 8.4592 606.433 4.12657C507.464 0.42798 400.447 6.87409 318.343 75.6942Z" fill="#E7ECFF"/>
<path opacity="0.24" d="M623.786 942.613C577.337 947.283 529.463 952.419 488.589 975.264C483.119 978.328 477.564 981.942 474.546 987.458C468.488 998.553 475.363 1013.18 486.032 1019.86C496.701 1026.53 509.865 1027.29 522.42 1027.84C745.987 1037.59 969.889 1033.76 1193.65 1029.96C1258.62 1028.86 1324.63 1027.59 1386.9 1008.72C1398.1 1005.34 1410.4 1000.26 1414.61 989.212C1420.13 974.757 1407.55 958.737 1392.88 954.236C1378.2 949.735 1362.55 953.095 1347.37 955.06C1294.68 961.886 1241.52 951.446 1189.05 943.099C1086.35 926.784 979.783 913.512 875.755 911.039C840.289 910.215 810.001 922.515 775.29 927.376C725.173 934.434 674.176 937.541 623.786 942.613Z" fill="#505F98"/>
<path d="M441.077 509.326L556.907 273.408L625.893 307.19L510.063 543.108L441.077 509.326Z" fill="white"/>
<path d="M467.922 502.055L482.036 473.22L528.5 495.903L514.386 524.738L467.922 502.055Z" fill="#505F98"/>
<path d="M467.922 502.055L482.036 473.22L528.5 495.903L514.386 524.738L467.922 502.055Z" fill="url(#paint0_linear_1460_1396)"/>
<path d="M482.038 473.445L496.151 444.61L542.615 467.293L528.502 496.128L482.038 473.445Z" fill="#505F98"/>
<path d="M482.038 473.445L496.151 444.61L542.615 467.293L528.502 496.128L482.038 473.445Z" fill="url(#paint1_linear_1460_1396)"/>
<path d="M496.134 444.826L510.248 415.991L556.712 438.674L542.599 467.509L496.134 444.826Z" fill="#505F98"/>
<path d="M496.134 444.826L510.248 415.991L556.712 438.674L542.599 467.509L496.134 444.826Z" fill="url(#paint2_linear_1460_1396)"/>
<path d="M510.271 416.237L524.384 387.402L570.848 410.085L556.735 438.92L510.271 416.237Z" fill="#505F98"/>
<path d="M510.271 416.237L524.384 387.402L570.848 410.085L556.735 438.92L510.271 416.237Z" fill="url(#paint3_linear_1460_1396)"/>
<path d="M524.377 387.599L538.49 358.764L584.954 381.447L570.841 410.282L524.377 387.599Z" fill="#505F98"/>
<path d="M538.492 359.01L552.606 330.175L599.07 352.858L584.956 381.693L538.492 359.01Z" fill="#505F98"/>
<path d="M552.589 330.391L566.702 301.556L613.166 324.239L599.053 353.074L552.589 330.391Z" fill="#505F98"/>
<path d="M536.904 362.598L551.018 333.763L597.482 356.446L583.368 385.281L536.904 362.598Z" fill="url(#paint4_linear_1460_1396)"/>
<path d="M551.029 333.97L565.142 305.135L611.607 327.817L597.493 356.652L551.029 333.97Z" fill="url(#paint5_linear_1460_1396)"/>
<rect x="851.545" y="827" width="98.0679" height="82" fill="#505F98"/>
<rect x="851.545" y="827" width="98.0679" height="82" fill="url(#paint6_linear_1460_1396)"/>
<rect x="643.401" y="485" width="518.359" height="355" rx="9.37" fill="#505F98"/>
<path opacity="0.65" d="M1144.75 514.438V808.562C1144.77 813.443 1142.84 818.129 1139.4 821.588C1135.96 825.047 1131.29 826.994 1126.41 827H674.748C669.873 826.989 665.203 825.04 661.764 821.582C658.325 818.125 656.399 813.441 656.41 808.562V514.438C656.399 509.559 658.325 504.875 661.764 501.418C665.203 497.96 669.873 496.011 674.748 496H1126.41C1131.29 496.006 1135.96 497.953 1139.4 501.412C1142.84 504.871 1144.77 509.557 1144.75 514.438Z" fill="url(#paint7_linear_1460_1396)"/>
<rect x="806.514" y="899" width="206.143" height="21" fill="#505F98"/>
<rect x="851.545" y="887" width="98.0679" height="12" fill="url(#paint8_linear_1460_1396)"/>
<path fill-rule="evenodd" clip-rule="evenodd" d="M1006.65 313.241V333.715L993.944 333.819C992.707 343.346 989.084 352.41 983.405 360.181L994.26 371.351L979.38 385.6L968.694 374.578C962.105 379.062 954.67 382.17 946.838 383.714V397H926.267V384.029C917.483 382.76 909.11 379.497 901.797 374.494L892.861 383.316L878.297 368.647L887.17 359.993C881.584 352.219 878.021 343.191 876.801 333.715H862.553V313.241H877.307C879.136 305.093 882.732 297.441 887.845 290.819L879.604 282.332L894.484 268.082L902.914 276.82C909.885 272.214 917.809 269.228 926.099 268.082V254H946.669V268.396C955.038 270.055 962.947 273.493 969.853 278.476L980.391 268.166L994.871 282.709L984.333 293.187C988.464 299.267 991.397 306.073 992.974 313.241H1006.65ZM900.512 326.15C900.488 345.211 916.011 360.682 935.183 360.705C944.394 360.733 953.238 357.113 959.759 350.644C966.281 344.176 969.943 335.392 969.938 326.233C969.961 307.172 954.438 291.701 935.267 291.678C916.095 291.655 900.535 307.088 900.512 326.15Z" fill="#505F98"/>
<path fill-rule="evenodd" clip-rule="evenodd" d="M1082.71 347.354L1081.79 359.396L1074.27 358.938C1073.15 364.475 1070.64 369.641 1066.99 373.958L1072.86 381.021L1063.51 388.729L1057.75 381.792C1053.69 384.13 1049.21 385.625 1044.56 386.188L1043.95 394L1031.91 393.104L1032.5 385.479C1027.41 384.344 1022.66 382.056 1018.6 378.792L1012.96 383.583L1005.1 374.396L1010.67 369.688C1007.74 364.876 1006.05 359.414 1005.76 353.792L997.646 353.167L998.544 341.146L1007.16 341.792C1008.59 337.085 1011.01 332.743 1014.28 329.062L1009.83 323.708L1019.18 316L1023.71 321.5C1027.98 319.095 1032.74 317.672 1037.63 317.333L1038.26 309L1050.3 309.896L1049.65 318.375C1054.46 319.714 1058.91 322.081 1062.71 325.312L1069.33 319.708L1077.18 328.896L1070.5 334.583C1072.66 338.339 1074.08 342.477 1074.67 346.771L1082.71 347.354ZM1020.01 350.243C1019.15 361.436 1027.55 371.203 1038.76 372.062C1044.15 372.487 1049.49 370.747 1053.6 367.228C1057.7 363.708 1060.23 358.7 1060.63 353.312C1061.47 342.119 1053.07 332.361 1041.85 331.514C1030.64 330.666 1020.86 339.05 1020.01 350.243Z" fill="#505F98"/>
<path d="M1144.75 514.513V521H656.41V514.513C656.399 509.614 658.325 504.912 661.764 501.44C665.203 497.968 669.874 496.011 674.749 496H1126.41C1131.29 496.006 1135.96 497.961 1139.4 501.434C1142.84 504.907 1144.77 509.613 1144.75 514.513Z" fill="url(#paint9_linear_1460_1396)"/>
<rect x="666.417" y="553" width="47.0326" height="227" fill="url(#paint10_linear_1460_1396)"/>
<rect x="784.499" y="569" width="221.153" height="209" fill="url(#paint11_linear_1460_1396)"/>
<rect x="835.534" y="667" width="7.00485" height="9" fill="url(#paint12_linear_1460_1396)"/>
<rect x="835.534" y="625" width="7.00485" height="9" fill="url(#paint13_linear_1460_1396)"/>
<rect x="740.469" y="667" width="7.00485" height="9" fill="url(#paint14_linear_1460_1396)"/>
<rect x="740.469" y="625" width="7.00485" height="9" fill="url(#paint15_linear_1460_1396)"/>
<rect x="835.534" y="580" width="7.00485" height="9" fill="url(#paint16_linear_1460_1396)"/>
<rect x="741.469" y="580" width="7.00485" height="9" fill="url(#paint17_linear_1460_1396)"/>
<rect x="789.502" y="580" width="7.00485" height="9" fill="url(#paint18_linear_1460_1396)"/>
<rect x="789.502" y="667" width="7.00485" height="9" fill="url(#paint19_linear_1460_1396)"/>
<path fill-rule="evenodd" clip-rule="evenodd" d="M753.478 665H831.532V592H753.478V665ZM823.67 657.282H761.34V599.656H823.67V657.282Z" fill="#505F98"/>
<path fill-rule="evenodd" clip-rule="evenodd" d="M753.478 665H831.532V592H753.478V665ZM823.67 657.282H761.34V599.656H823.67V657.282Z" fill="url(#paint20_linear_1460_1396)"/>
<rect x="1037.67" y="533" width="100.069" height="100" fill="url(#paint21_linear_1460_1396)"/>
<rect x="1037.67" y="643" width="100.069" height="100" fill="url(#paint22_linear_1460_1396)"/>
<rect opacity="0.65" x="666.417" y="552" width="47.0326" height="13" fill="url(#paint23_linear_1460_1396)"/>
<path d="M463.381 483.827L668.51 319.293L716.622 379.118L511.494 543.652L463.381 483.827Z" fill="white"/>
<path d="M492.105 488.455L517.172 468.235L549.755 508.522L524.687 528.742L492.105 488.455Z" fill="#505F98"/>
<path d="M492.105 488.455L517.172 468.235L549.755 508.522L524.687 528.742L492.105 488.455Z" fill="url(#paint24_linear_1460_1396)"/>
<path d="M515.723 468.689L540.755 448.56L573.19 488.79L548.158 508.919L515.723 468.689Z" fill="#505F98"/>
<path d="M515.723 468.689L540.755 448.56L573.19 488.79L548.158 508.919L515.723 468.689Z" fill="url(#paint25_linear_1460_1396)"/>
<path d="M540.667 448.761L565.699 428.633L598.134 468.863L573.101 488.991L540.667 448.761Z" fill="#505F98"/>
<path d="M540.667 448.761L565.699 428.633L598.134 468.863L573.101 488.991L540.667 448.761Z" fill="url(#paint26_linear_1460_1396)"/>
<path d="M565.594 428.847L590.626 408.718L623.061 448.948L598.029 469.077L565.594 428.847Z" fill="#505F98"/>
<path d="M565.594 428.847L590.626 408.718L623.061 448.948L598.029 469.077L565.594 428.847Z" fill="url(#paint27_linear_1460_1396)"/>
<path d="M591.714 408.389L616.782 388.169L649.364 428.456L624.297 448.676L591.714 408.389Z" fill="#505F98"/>
<path d="M616.794 387.99L641.862 367.77L674.444 408.057L649.377 428.277L616.794 387.99Z" fill="#505F98"/>
<path d="M640.402 369.051L665.434 348.923L697.869 389.153L672.837 409.281L640.402 369.051Z" fill="#505F98"/>
<path d="M670.42 412.218L649.321 429L617.383 388.782L638.482 372L670.42 412.218Z" fill="url(#paint28_linear_1460_1396)"/>
<path d="M637.445 371.648L662.477 351.519L694.912 391.749L669.879 411.878L637.445 371.648Z" fill="url(#paint29_linear_1460_1396)"/>
<path d="M586.362 493.15V616H565.347V493.15C565.347 488.61 568.166 484.57 572.366 483.089V470.825C572.366 468.712 574.041 467 576.109 467C578.176 467 579.852 468.712 579.852 470.825V483.297C583.771 484.935 586.34 488.823 586.362 493.15Z" fill="#505F98"/>
<path d="M586.362 493.15V616H565.347V493.15C565.347 488.61 568.166 484.57 572.366 483.089V470.825C572.366 468.712 574.041 467 576.109 467C578.176 467 579.852 468.712 579.852 470.825V483.297C583.771 484.935 586.34 488.823 586.362 493.15Z" fill="url(#paint30_linear_1460_1396)"/>
<rect x="552.338" y="571" width="50.0346" height="9" rx="2.245" fill="#505F98"/>
<path d="M577.044 653C568.471 653 561.344 640.185 561.344 631.634V575H592.366V631.634C592.366 640.185 585.596 653 577.044 653Z" fill="#505F98"/>
<rect x="552.338" y="571" width="50.0346" height="9" rx="2.245" fill="url(#paint31_linear_1460_1396)"/>
<path d="M577.044 653C568.471 653 561.344 640.366 561.344 631.937V580H592.366V631.937C592.366 640.366 585.596 653 577.044 653Z" fill="url(#paint32_linear_1460_1396)"/>
<path d="M777.136 713C776.463 709.436 776.037 704.39 777.331 704.043C780.059 703.275 777.136 713 777.136 713Z" fill="#28353D"/>
<path d="M920.395 908.507C919.909 921.102 910.147 967.388 909.83 980.004C909.83 984.202 910.95 990.647 909.597 994.698C906.808 1003.28 896.919 1002.11 895.63 997.049L895.144 994.53C890.559 970.012 897.933 942.198 895.144 910.186C893.475 890.643 885.699 852.963 880.606 852.711C877.923 852.711 816.665 981.851 811.34 989.807C808.72 993.817 801.345 993.187 797.774 996.42C794.203 999.652 827.526 898.515 841.493 845.07C844.751 834.039 846.875 822.709 847.833 811.252C848.213 804.64 846.079 802.415 852.185 800.463C856.412 799.119 862.265 799.497 866.787 799.182C871.71 798.804 917.5 798.72 917.5 801.953C917.057 819.502 921.578 879.412 920.395 908.507Z" fill="#606161"/>
<path d="M920.395 908.507C919.909 921.102 910.147 967.388 909.83 980.004C909.83 984.202 910.95 990.647 909.597 994.698C906.808 1003.28 896.919 1002.11 895.63 997.049L895.144 994.53C890.559 970.012 897.933 942.198 895.144 910.186C893.475 890.643 885.699 852.963 880.606 852.711C877.923 852.711 816.665 981.851 811.34 989.807C808.72 993.817 801.345 993.187 797.774 996.42C794.203 999.652 827.526 898.515 841.493 845.07C844.751 834.039 846.875 822.709 847.833 811.252C848.213 804.64 846.079 802.415 852.185 800.463C856.412 799.119 862.265 799.497 866.787 799.182C871.71 798.804 917.5 798.72 917.5 801.953C917.057 819.502 921.578 879.412 920.395 908.507Z" fill="url(#paint33_linear_1460_1396)"/>
<path d="M866.322 640.148C865.937 636.163 864.054 634 862.215 634C860.375 634 859.241 636.12 859.626 640.148C859.713 643.122 861.957 645.597 864.932 646C866.793 646 866.729 644.134 866.322 640.148Z" fill="#FFCD9C"/>
<path d="M898.716 640.159C898.966 636.166 900.803 634 902.702 634C904.601 634 905.832 636.124 905.54 640.159C905.513 643.173 903.268 645.687 900.323 646C898.444 646 898.424 644.152 898.716 640.159Z" fill="#FFCD9C"/>
<path d="M902.44 657.672C902.181 659.777 893.266 669 883.121 669C872.976 669 864.6 660.577 862.83 657.208C861.06 653.839 868.184 610.505 872.306 606.884C876.429 603.262 893.137 605.641 894.54 607.558C897.907 612.085 903.541 649.27 902.44 657.672Z" fill="#F4AD7D"/>
<path d="M898.246 624.977C896.867 625.639 891.452 611.842 890.316 609.525C889.18 607.208 889.362 604.829 890.742 604.167C892.121 603.505 894.149 604.871 895.285 607.167C896.421 609.463 899.605 624.336 898.246 624.977Z" fill="#FFCD9C"/>
<path d="M867.876 623.987C866.445 623.501 870.233 609.179 871.059 606.703C871.885 604.228 873.739 602.599 875.089 603.086C876.439 603.573 877.003 605.984 876.177 608.481C875.351 610.977 869.226 624.474 867.876 623.987Z" fill="#FFCD9C"/>
<path d="M873.553 656H895.317L898.578 676.622C886.722 683.005 879.81 682.301 870.559 675.214L873.553 656Z" fill="#F4AD7D"/>
<path d="M882.567 660.13C882.567 659.75 883.472 659.43 884.568 659.43C885.664 659.43 886.57 659.75 886.57 660.13C886.57 660.51 885.688 660.57 884.568 660.57C883.448 660.57 882.567 660.53 882.567 660.13Z" fill="#F4AD7D"/>
<path d="M903.6 650.808C904.424 645.894 905.768 610.708 902.473 606.051C899.178 601.394 879.449 598.381 876.458 599.108C869.759 600.731 870.929 605.517 870.929 605.517C868.938 605.547 866.989 606.084 865.271 607.076C862.973 608.615 858.138 630.79 861.997 647.56C863.732 655.102 870.561 661.66 882.354 661.981C896.88 662.365 902.603 656.896 903.6 650.808Z" fill="#606161"/>
<path d="M876.539 600.762C878.098 599.448 880.118 598.828 882.138 599.041C888.271 599.008 894.355 600.14 900.073 602.376C903.243 603.488 906.123 605.311 908.493 607.708C910.88 610.173 911.98 613.627 911.461 617.034C910.409 622.047 905.146 625.148 903.42 629.97C902.031 633.837 903.02 637.575 903.062 641.463C903.09 644.606 902.865 647.746 902.389 650.852C901.42 656.906 895.884 662.344 881.675 661.983C870.224 661.664 863.593 655.143 861.909 647.644C859.629 635.198 860.227 622.389 863.656 610.215C869.828 611.648 876.142 612.361 882.475 612.339C889.19 612.395 895.886 611.611 902.41 610.002C903.525 616.503 903.504 629.524 903.146 639.253" fill="#606161"/>
<path d="M841.41 672.954C837.976 673.241 834.668 674.384 831.785 676.28C826.847 680.171 826.472 687.43 826.556 693.748C826.387 702.501 826.993 711.252 828.368 719.897C829.848 727.826 832.535 735.441 834.743 743.202C838.224 755.831 840.052 768.862 840.181 781.966C840.181 789.162 840.056 797.07 844.535 802.697C849.431 808.806 858.098 809.998 865.89 810.438C876.953 811.086 888.057 811.17 899.12 810.71C906.537 810.375 914.433 809.643 920.308 805.082C924.996 801.442 935.975 678.288 927.454 675.171C918.933 672.054 909.766 671.259 900.724 670.506C880.453 668.791 861.369 667.431 841.41 672.954Z" fill="#505F98"/>
<path d="M905.23 928.291C904.143 942.255 901.551 993 901.551 993L894.946 992.77C890.41 968.39 897.705 940.732 894.946 908.899C893.295 889.465 885.603 851.996 880.565 851.746C882.07 839.221 890.536 841.1 890.536 841.1C896.692 850.294 902.002 860.026 906.4 870.178C911.438 883.37 906.337 914.263 905.23 928.291Z" fill="url(#paint34_linear_1460_1396)"/>
<path d="M780.873 994.024C779.841 994.786 779.058 995.83 778.621 997.025C778.386 998.009 778.481 999.04 778.892 999.965C780.058 1002.33 782.268 1004.02 784.876 1004.55C787.453 1005.04 790.091 1005.13 792.695 1004.82L801.036 1004.26C803.158 1004.21 805.263 1003.87 807.292 1003.26C809.322 1002.63 810.998 1001.2 811.921 999.308C812.412 997.916 812.604 996.438 812.484 994.969C812.484 988.164 810.065 982.634 802.517 984.299C794.61 985.765 787.182 989.102 780.873 994.024Z" fill="#505F98"/>
<path d="M919.411 997.063C920.359 997.759 921.077 998.709 921.478 999.797C921.692 1000.68 921.608 1001.61 921.239 1002.45C920.176 1004.58 918.146 1006.11 915.755 1006.58C913.398 1007.04 910.981 1007.12 908.596 1006.83L901.024 1006.33C899.098 1006.28 897.187 1005.98 895.345 1005.43C893.488 1004.86 891.958 1003.57 891.123 1001.85C890.675 1000.59 890.498 999.26 890.601 997.932C890.601 991.785 892.777 986.72 899.718 988.288C906.915 989.619 913.672 992.63 919.411 997.063Z" fill="#505F98"/>
<path d="M928.599 675C928.599 675 961.314 694.164 971.14 718.389C980.965 742.614 938.96 801 938.96 801L929.972 791.814C929.972 791.814 951.896 747.759 948.507 736.74C945.117 725.721 931.838 715.452 931.838 715.452L928.599 675Z" fill="#505F98"/>
<path d="M835.534 712.859C835.534 712.859 790.046 733.24 771.561 723.238C753.076 713.237 772.106 663 772.106 663L784.486 667.202C784.486 667.202 774.142 692.815 785.975 696.618C797.809 700.421 833.268 675.438 833.268 675.438L835.534 712.859Z" fill="#505F98"/>
<path d="M921.175 799.976C919.866 800.826 918.806 801.968 918.09 803.297C917.66 804.425 917.505 805.629 917.637 806.819C917.557 809.709 918.872 812.479 921.218 814.367C922.866 815.25 924.713 815.76 926.611 815.857C927.774 816.048 928.964 816.048 930.127 815.857C931.314 815.646 932.305 814.888 932.759 813.844C932.914 813.183 932.98 812.507 932.953 811.831C933.104 808.51 935.607 805.793 937.678 803.076C938.178 802.551 938.501 801.9 938.606 801.204C938.594 800.434 938.305 799.69 937.786 799.091C936.384 797.199 932.91 793.717 930.127 794.018C927.344 794.32 923.332 798.326 921.175 799.976Z" fill="#F4AD7D"/>
<path d="M792.294 655.435C792.886 654.611 793.29 653.679 793.48 652.698C793.631 651.683 793.094 650.687 792.14 650.211C790.624 649.647 788.822 651.13 787.328 650.504C786.822 650.235 786.399 649.846 786.098 649.375C784.333 646.945 783.321 644.093 783.175 641.143C783.261 639.571 783.113 637.995 782.736 636.463C782.292 634.886 780.708 633.849 779.001 634.018C777.595 634.331 776.804 635.689 775.925 636.776C775.046 637.863 773.288 639.158 772.146 640.516C770.195 643.307 769.079 646.55 768.916 649.898C768.301 654.077 767.905 658.861 770.981 661.87C773.354 664.189 780.583 666.927 783.9 665.694C787.57 664.315 790.448 658.444 792.294 655.435Z" fill="#F4AD7D"/>
<defs>
<linearGradient id="paint0_linear_1460_1396" x1="592.11" y1="569.166" x2="656.864" y2="440.6" gradientUnits="userSpaceOnUse">
<stop stop-color="#010101" stop-opacity="0.01"/>
<stop offset="0.95" stop-color="#010101"/>
</linearGradient>
<linearGradient id="paint1_linear_1460_1396" x1="647.271" y1="565.365" x2="740.125" y2="383.775" gradientUnits="userSpaceOnUse">
<stop stop-color="#010101" stop-opacity="0.01"/>
<stop offset="0.95" stop-color="#010101"/>
</linearGradient>
<linearGradient id="paint2_linear_1460_1396" x1="767.253" y1="574.092" x2="904.607" y2="263.948" gradientUnits="userSpaceOnUse">
<stop stop-color="#010101" stop-opacity="0.01"/>
<stop offset="0.95" stop-color="#010101"/>
</linearGradient>
<linearGradient id="paint3_linear_1460_1396" x1="895.087" y1="590.583" x2="1100.02" y2="143.178" gradientUnits="userSpaceOnUse">
<stop stop-color="#010101" stop-opacity="0.01"/>
<stop offset="0.36" stop-color="#010101" stop-opacity="0.36"/>
<stop offset="0.95" stop-color="#010101"/>
</linearGradient>
<linearGradient id="paint4_linear_1460_1396" x1="746.434" y1="485.564" x2="863.594" y2="243.969" gradientUnits="userSpaceOnUse">
<stop stop-color="white" stop-opacity="0.01"/>
<stop offset="0.07" stop-color="white" stop-opacity="0.22"/>
<stop offset="0.16" stop-color="white" stop-opacity="0.45"/>
<stop offset="0.25" stop-color="white" stop-opacity="0.65"/>
<stop offset="0.33" stop-color="white" stop-opacity="0.8"/>
<stop offset="0.4" stop-color="white" stop-opacity="0.91"/>
<stop offset="0.46" stop-color="white" stop-opacity="0.98"/>
<stop offset="0.51" stop-color="white"/>
</linearGradient>
<linearGradient id="paint5_linear_1460_1396" x1="668.358" y1="432.444" x2="732.555" y2="296.555" gradientUnits="userSpaceOnUse">
<stop stop-color="white" stop-opacity="0.01"/>
<stop offset="0.07" stop-color="white" stop-opacity="0.22"/>
<stop offset="0.16" stop-color="white" stop-opacity="0.45"/>
<stop offset="0.25" stop-color="white" stop-opacity="0.65"/>
<stop offset="0.33" stop-color="white" stop-opacity="0.8"/>
<stop offset="0.4" stop-color="white" stop-opacity="0.91"/>
<stop offset="0.46" stop-color="white" stop-opacity="0.98"/>
<stop offset="0.51" stop-color="white"/>
</linearGradient>
<linearGradient id="paint6_linear_1460_1396" x1="973.68" y1="895.322" x2="984.101" y2="768.584" gradientUnits="userSpaceOnUse">
<stop stop-color="#010101" stop-opacity="0.01"/>
<stop offset="0.95" stop-color="#010101"/>
</linearGradient>
<linearGradient id="paint7_linear_1460_1396" x1="571.967" y1="432.517" x2="569.252" y2="882.071" gradientUnits="userSpaceOnUse">
<stop stop-color="white" stop-opacity="0.01"/>
<stop offset="0.07" stop-color="white" stop-opacity="0.22"/>
<stop offset="0.16" stop-color="white" stop-opacity="0.45"/>
<stop offset="0.25" stop-color="white" stop-opacity="0.65"/>
<stop offset="0.33" stop-color="white" stop-opacity="0.8"/>
<stop offset="0.4" stop-color="white" stop-opacity="0.91"/>
<stop offset="0.46" stop-color="white" stop-opacity="0.98"/>
<stop offset="0.51" stop-color="white"/>
</linearGradient>
<linearGradient id="paint8_linear_1460_1396" x1="318.313" y1="870.073" x2="318.413" y2="1012.31" gradientUnits="userSpaceOnUse">
<stop stop-color="#010101" stop-opacity="0.01"/>
<stop offset="0.95" stop-color="#010101"/>
</linearGradient>
<linearGradient id="paint9_linear_1460_1396" x1="1470.73" y1="615.966" x2="1504.91" y2="208.855" gradientUnits="userSpaceOnUse">
<stop stop-color="white" stop-opacity="0.01"/>
<stop offset="0.07" stop-color="white" stop-opacity="0.22"/>
<stop offset="0.16" stop-color="white" stop-opacity="0.45"/>
<stop offset="0.25" stop-color="white" stop-opacity="0.65"/>
<stop offset="0.33" stop-color="white" stop-opacity="0.8"/>
<stop offset="0.4" stop-color="white" stop-opacity="0.91"/>
<stop offset="0.46" stop-color="white" stop-opacity="0.98"/>
<stop offset="0.51" stop-color="white"/>
</linearGradient>
<linearGradient id="paint10_linear_1460_1396" x1="643.846" y1="505.87" x2="781.853" y2="874.142" gradientUnits="userSpaceOnUse">
<stop stop-color="white" stop-opacity="0.01"/>
<stop offset="0.07" stop-color="white" stop-opacity="0.22"/>
<stop offset="0.16" stop-color="white" stop-opacity="0.45"/>
<stop offset="0.25" stop-color="white" stop-opacity="0.65"/>
<stop offset="0.33" stop-color="white" stop-opacity="0.8"/>
<stop offset="0.4" stop-color="white" stop-opacity="0.91"/>
<stop offset="0.46" stop-color="white" stop-opacity="0.98"/>
<stop offset="0.51" stop-color="white"/>
</linearGradient>
<linearGradient id="paint11_linear_1460_1396" x1="747.377" y1="528.99" x2="744.051" y2="811.698" gradientUnits="userSpaceOnUse">
<stop stop-color="white" stop-opacity="0.01"/>
<stop offset="0.07" stop-color="white" stop-opacity="0.22"/>
<stop offset="0.16" stop-color="white" stop-opacity="0.45"/>
<stop offset="0.25" stop-color="white" stop-opacity="0.65"/>
<stop offset="0.33" stop-color="white" stop-opacity="0.8"/>
<stop offset="0.4" stop-color="white" stop-opacity="0.91"/>
<stop offset="0.46" stop-color="white" stop-opacity="0.98"/>
<stop offset="0.51" stop-color="white"/>
</linearGradient>
<linearGradient id="paint12_linear_1460_1396" x1="1063.21" y1="720.704" x2="1082.4" y2="142.785" gradientUnits="userSpaceOnUse">
<stop stop-color="#010101" stop-opacity="0.01"/>
<stop offset="0.95" stop-color="#010101"/>
</linearGradient>
<linearGradient id="paint13_linear_1460_1396" x1="1062.36" y1="721.045" x2="1081.55" y2="143.125" gradientUnits="userSpaceOnUse">
<stop stop-color="#010101" stop-opacity="0.01"/>
<stop offset="0.95" stop-color="#010101"/>
</linearGradient>
<linearGradient id="paint14_linear_1460_1396" x1="968.18" y1="718.354" x2="987.396" y2="140.435" gradientUnits="userSpaceOnUse">
<stop stop-color="#010101" stop-opacity="0.01"/>
<stop offset="0.95" stop-color="#010101"/>
</linearGradient>
<linearGradient id="paint15_linear_1460_1396" x1="967.328" y1="718.694" x2="986.544" y2="140.776" gradientUnits="userSpaceOnUse">
<stop stop-color="#010101" stop-opacity="0.01"/>
<stop offset="0.95" stop-color="#010101"/>
</linearGradient>
<linearGradient id="paint16_linear_1460_1396" x1="1061.42" y1="722.545" x2="1080.64" y2="144.627" gradientUnits="userSpaceOnUse">
<stop stop-color="#010101" stop-opacity="0.01"/>
<stop offset="0.95" stop-color="#010101"/>
</linearGradient>
<linearGradient id="paint17_linear_1460_1396" x1="967.39" y1="720.236" x2="986.578" y2="142.317" gradientUnits="userSpaceOnUse">
<stop stop-color="#010101" stop-opacity="0.01"/>
<stop offset="0.95" stop-color="#010101"/>
</linearGradient>
<linearGradient id="paint18_linear_1460_1396" x1="1015.38" y1="721.396" x2="1034.6" y2="143.499" gradientUnits="userSpaceOnUse">
<stop stop-color="#010101" stop-opacity="0.01"/>
<stop offset="0.95" stop-color="#010101"/>
</linearGradient>
<linearGradient id="paint19_linear_1460_1396" x1="1017.2" y1="718.843" x2="1036.41" y2="140.925" gradientUnits="userSpaceOnUse">
<stop stop-color="#010101" stop-opacity="0.01"/>
<stop offset="0.95" stop-color="#010101"/>
</linearGradient>
<linearGradient id="paint20_linear_1460_1396" x1="672.119" y1="733.399" x2="904.351" y2="950.094" gradientUnits="userSpaceOnUse">
<stop stop-color="white" stop-opacity="0.01"/>
<stop offset="0.07" stop-color="white" stop-opacity="0.22"/>
<stop offset="0.16" stop-color="white" stop-opacity="0.45"/>
<stop offset="0.25" stop-color="white" stop-opacity="0.65"/>
<stop offset="0.33" stop-color="white" stop-opacity="0.8"/>
<stop offset="0.4" stop-color="white" stop-opacity="0.91"/>
<stop offset="0.46" stop-color="white" stop-opacity="0.98"/>
<stop offset="0.51" stop-color="white"/>
</linearGradient>
<linearGradient id="paint21_linear_1460_1396" x1="1020.99" y1="513.864" x2="1019.2" y2="649.026" gradientUnits="userSpaceOnUse">
<stop stop-color="white" stop-opacity="0.01"/>
<stop offset="0.07" stop-color="white" stop-opacity="0.22"/>
<stop offset="0.16" stop-color="white" stop-opacity="0.45"/>
<stop offset="0.25" stop-color="white" stop-opacity="0.65"/>
<stop offset="0.33" stop-color="white" stop-opacity="0.8"/>
<stop offset="0.4" stop-color="white" stop-opacity="0.91"/>
<stop offset="0.46" stop-color="white" stop-opacity="0.98"/>
<stop offset="0.51" stop-color="white"/>
</linearGradient>
<linearGradient id="paint22_linear_1460_1396" x1="1020.99" y1="623.864" x2="1019.2" y2="759.026" gradientUnits="userSpaceOnUse">
<stop stop-color="white" stop-opacity="0.01"/>
<stop offset="0.07" stop-color="white" stop-opacity="0.22"/>
<stop offset="0.16" stop-color="white" stop-opacity="0.45"/>
<stop offset="0.25" stop-color="white" stop-opacity="0.65"/>
<stop offset="0.33" stop-color="white" stop-opacity="0.8"/>
<stop offset="0.4" stop-color="white" stop-opacity="0.91"/>
<stop offset="0.46" stop-color="white" stop-opacity="0.98"/>
<stop offset="0.51" stop-color="white"/>
</linearGradient>
<linearGradient id="paint23_linear_1460_1396" x1="657.145" y1="549.281" x2="657.128" y2="567.481" gradientUnits="userSpaceOnUse">
<stop stop-color="white" stop-opacity="0.01"/>
<stop offset="0.07" stop-color="white" stop-opacity="0.22"/>
<stop offset="0.16" stop-color="white" stop-opacity="0.45"/>
<stop offset="0.25" stop-color="white" stop-opacity="0.65"/>
<stop offset="0.33" stop-color="white" stop-opacity="0.8"/>
<stop offset="0.4" stop-color="white" stop-opacity="0.91"/>
<stop offset="0.46" stop-color="white" stop-opacity="0.98"/>
<stop offset="0.51" stop-color="white"/>
</linearGradient>
<linearGradient id="paint24_linear_1460_1396" x1="576.445" y1="602.052" x2="689.876" y2="512.635" gradientUnits="userSpaceOnUse">
<stop stop-color="#010101" stop-opacity="0.01"/>
<stop offset="0.95" stop-color="#010101"/>
</linearGradient>
<linearGradient id="paint25_linear_1460_1396" x1="626.284" y1="621.988" x2="787.56" y2="496.867" gradientUnits="userSpaceOnUse">
<stop stop-color="#010101" stop-opacity="0.01"/>
<stop offset="0.95" stop-color="#010101"/>
</linearGradient>
<linearGradient id="paint26_linear_1460_1396" x1="731.228" y1="680.751" x2="987.392" y2="458.028" gradientUnits="userSpaceOnUse">
<stop stop-color="#010101" stop-opacity="0.01"/>
<stop offset="0.95" stop-color="#010101"/>
</linearGradient>
<linearGradient id="paint27_linear_1460_1396" x1="839.987" y1="749.865" x2="1215.67" y2="431.45" gradientUnits="userSpaceOnUse">
<stop stop-color="#010101" stop-opacity="0.01"/>
<stop offset="0.36" stop-color="#010101" stop-opacity="0.36"/>
<stop offset="0.95" stop-color="#010101"/>
</linearGradient>
<linearGradient id="paint28_linear_1460_1396" x1="688.246" y1="512.751" x2="871.185" y2="381.322" gradientUnits="userSpaceOnUse">
<stop stop-color="white" stop-opacity="0.01"/>
<stop offset="0.07" stop-color="white" stop-opacity="0.22"/>
<stop offset="0.16" stop-color="white" stop-opacity="0.45"/>
<stop offset="0.25" stop-color="white" stop-opacity="0.65"/>
<stop offset="0.33" stop-color="white" stop-opacity="0.8"/>
<stop offset="0.4" stop-color="white" stop-opacity="0.91"/>
<stop offset="0.46" stop-color="white" stop-opacity="0.98"/>
<stop offset="0.51" stop-color="white"/>
</linearGradient>
<linearGradient id="paint29_linear_1460_1396" x1="701.859" y1="510.517" x2="817.717" y2="414.658" gradientUnits="userSpaceOnUse">
<stop stop-color="white" stop-opacity="0.01"/>
<stop offset="0.07" stop-color="white" stop-opacity="0.22"/>
<stop offset="0.16" stop-color="white" stop-opacity="0.45"/>
<stop offset="0.25" stop-color="white" stop-opacity="0.65"/>
<stop offset="0.33" stop-color="white" stop-opacity="0.8"/>
<stop offset="0.4" stop-color="white" stop-opacity="0.91"/>
<stop offset="0.46" stop-color="white" stop-opacity="0.98"/>
<stop offset="0.51" stop-color="white"/>
</linearGradient>
<linearGradient id="paint30_linear_1460_1396" x1="567.446" y1="676.745" x2="605.631" y2="676.767" gradientUnits="userSpaceOnUse">
<stop stop-color="white" stop-opacity="0.01"/>
<stop offset="0.07" stop-color="white" stop-opacity="0.22"/>
<stop offset="0.16" stop-color="white" stop-opacity="0.45"/>
<stop offset="0.25" stop-color="white" stop-opacity="0.65"/>
<stop offset="0.33" stop-color="white" stop-opacity="0.8"/>
<stop offset="0.4" stop-color="white" stop-opacity="0.91"/>
<stop offset="0.46" stop-color="white" stop-opacity="0.98"/>
<stop offset="0.51" stop-color="white"/>
</linearGradient>
<linearGradient id="paint31_linear_1460_1396" x1="494.154" y1="579.2" x2="505.805" y2="617.932" gradientUnits="userSpaceOnUse">
<stop stop-color="#010101" stop-opacity="0.01"/>
<stop offset="0.95" stop-color="#010101"/>
</linearGradient>
<linearGradient id="paint32_linear_1460_1396" x1="518.952" y1="727.933" x2="619.855" y2="729.976" gradientUnits="userSpaceOnUse">
<stop stop-color="#010101" stop-opacity="0.01"/>
<stop offset="0.95" stop-color="#010101"/>
</linearGradient>
<linearGradient id="paint33_linear_1460_1396" x1="921.723" y1="885.512" x2="825.63" y2="720.732" gradientUnits="userSpaceOnUse">
<stop stop-color="#010101" stop-opacity="0.01"/>
<stop offset="0.95" stop-color="#010101"/>
</linearGradient>
<linearGradient id="paint34_linear_1460_1396" x1="922.746" y1="423.892" x2="749.86" y2="428.761" gradientUnits="userSpaceOnUse">
<stop stop-color="#010101" stop-opacity="0.01"/>
<stop offset="0.95" stop-color="#010101"/>
</linearGradient>
</defs>
</svg>
